<svg width="154" height="143" viewBox="0 0 154 143" fill="none" xmlns="http://www.w3.org/2000/svg">
<path d="M75.2267 115.707C101.309 115.707 122.453 96.0729 122.453 71.8533C122.453 47.6338 101.309 28 75.2267 28C49.1441 28 28 47.6338 28 71.8533C28 96.0729 49.1441 115.707 75.2267 115.707Z" fill="#4BFFA5"/>
<path d="M101.26 126.793H51.0597C46.2108 126.793 42.2797 123.143 42.2797 118.64V52.4333H110.04V118.64C110.04 123.144 106.109 126.793 101.26 126.793Z" fill="white"/>
<path d="M101.259 128.7H51.0608C45.0871 128.7 40.2269 124.187 40.2269 118.64V52.4333C40.2269 51.3804 41.1452 50.5267 42.2802 50.5267H110.04C111.175 50.5267 112.094 51.3804 112.094 52.4333V118.64C112.093 124.188 107.233 128.7 101.259 128.7ZM44.333 54.34V118.64C44.333 122.084 47.3509 124.887 51.0603 124.887H101.259C104.968 124.887 107.986 122.084 107.986 118.64V54.34H44.333Z" fill="#040F3D"/>
<path d="M89.5063 52.4333H99.773V23.8338L89.5063 16.2072V52.4333Z" fill="white"/>
<path d="M99.773 54.34H89.5063C88.3714 54.34 87.453 53.4863 87.453 52.4333V16.2066C87.453 15.474 87.9063 14.8057 88.6162 14.4883C89.3241 14.1708 90.1721 14.2595 90.7897 14.718L101.056 22.3447C101.544 22.706 101.826 23.2542 101.826 23.8333V52.4333C101.826 53.4863 100.908 54.34 99.773 54.34ZM91.5597 50.5266H97.7197V24.7495L91.5597 20.1735V50.5266Z" fill="#040F3D"/>
<path d="M62.813 52.4333H52.5463V23.8338L62.813 16.2072V52.4333Z" fill="white"/>
<path d="M62.813 54.34H52.5463C51.4114 54.34 50.493 53.4863 50.493 52.4333V23.8333C50.493 23.2542 50.7759 22.706 51.263 22.3447L61.5297 14.718C62.1472 14.2609 62.9896 14.1722 63.7031 14.4883C64.4131 14.8057 64.8663 15.474 64.8663 16.2067V52.4333C64.8663 53.4863 63.948 54.34 62.813 54.34ZM54.5997 50.5266H60.7597V20.174L54.5997 24.75V50.5266Z" fill="#040F3D"/>
<path d="M62.813 16.2067H89.5064V23.8333H62.813V16.2067Z" fill="white"/>
<path d="M89.5064 25.74H62.813C61.6781 25.74 60.7597 24.8863 60.7597 23.8333V16.2067C60.7597 15.1537 61.6781 14.3 62.813 14.3H89.5064C90.6414 14.3 91.5597 15.1537 91.5597 16.2067V23.8333C91.5597 24.8863 90.6414 25.74 89.5064 25.74ZM64.8664 21.9267H87.453V18.1133H64.8664V21.9267Z" fill="#040F3D"/>
<path d="M32.3862 32.7608C31.8611 32.7608 31.3354 32.5744 30.9345 32.2022L28.0311 29.5052C27.2293 28.7606 27.2293 27.5527 28.0311 26.8091C28.8329 26.0646 30.1327 26.0646 30.9345 26.8091L33.8379 29.5061C34.6398 30.2507 34.6398 31.4586 33.8379 32.2022C33.437 32.5744 32.9114 32.7608 32.3862 32.7608Z" fill="#4BFFA5"/>
<path d="M22.2238 23.3233C21.6986 23.3233 21.173 23.1369 20.7721 22.7646L17.8686 20.0676C17.0668 19.3231 17.0668 18.1152 17.8686 17.3716C18.6705 16.6271 19.9702 16.6271 20.7721 17.3716L23.6755 20.0686C24.4773 20.8131 24.4773 22.021 23.6755 22.7646C23.2746 23.1369 22.7489 23.3233 22.2238 23.3233Z" fill="#4BFFA5"/>
<path d="M29.4828 23.3233C28.9577 23.3233 28.432 23.1369 28.0311 22.7646C27.2293 22.0205 27.2293 20.8131 28.0311 20.0686L30.9345 17.3716C31.7364 16.6271 33.0361 16.6271 33.8379 17.3716C34.6398 18.1157 34.6398 19.3231 33.8379 20.0676L30.9345 22.7646C30.5331 23.1369 30.008 23.3233 29.4828 23.3233Z" fill="#4BFFA5"/>
<path d="M19.3204 32.7608C18.7952 32.7608 18.2696 32.5744 17.8686 32.2022C17.0668 31.4581 17.0668 30.2507 17.8686 29.5061L20.7721 26.8091C21.5739 26.0646 22.8736 26.0646 23.6755 26.8091C24.4773 27.5532 24.4773 28.7606 23.6755 29.5052L20.7721 32.2022C20.3711 32.5744 19.8455 32.7608 19.3204 32.7608Z" fill="#4BFFA5"/>
<path d="M29.9597 50.5738C31.1218 50.5738 32.0638 49.6991 32.0638 48.62C32.0638 47.5409 31.1218 46.6661 29.9597 46.6661C28.7976 46.6661 27.8555 47.5409 27.8555 48.62C27.8555 49.6991 28.7976 50.5738 29.9597 50.5738Z" fill="#4BFFA5"/>
<path d="M118.253 29.6005C119.415 29.6005 120.357 28.7258 120.357 27.6467C120.357 26.5676 119.415 25.6928 118.253 25.6928C117.091 25.6928 116.149 26.5676 116.149 27.6467C116.149 28.7258 117.091 29.6005 118.253 29.6005Z" fill="#4BFFA5"/>
<path d="M130.573 50.5267C127.176 50.5267 124.413 47.9608 124.413 44.8067C124.413 41.6526 127.176 39.0867 130.573 39.0867C133.97 39.0867 136.733 41.6526 136.733 44.8067C136.733 47.9608 133.97 50.5267 130.573 50.5267ZM130.573 42.9C129.44 42.9 128.52 43.7556 128.52 44.8067C128.52 45.8577 129.44 46.7133 130.573 46.7133C131.706 46.7133 132.626 45.8577 132.626 44.8067C132.626 43.7556 131.706 42.9 130.573 42.9Z" fill="#4BFFA5"/>
<path d="M84.1055 76.3101C80.8176 76.3101 77.9168 77.8311 76.1602 80.1525C74.403 77.8311 71.5022 76.3101 68.2148 76.3101C62.8515 76.3101 58.5036 80.3474 58.5036 85.3276C58.5036 90.3079 70.7866 101.973 76.1602 104.824C81.5337 101.972 93.8168 90.3074 93.8168 85.3276C93.8163 80.3469 89.4689 76.3101 84.1055 76.3101Z" fill="#EC5569"/>
<path d="M76.1597 106.731C75.8085 106.731 75.4559 106.647 75.1412 106.48C69.8734 103.684 56.4507 91.5801 56.4507 85.3276C56.4507 79.304 61.7283 74.4034 68.2153 74.4034C71.1808 74.4034 74.0103 75.4497 76.1602 77.2801C78.31 75.4497 81.139 74.4034 84.105 74.4034C90.592 74.4034 95.8696 79.304 95.8696 85.3276C95.8696 91.5801 82.447 103.684 77.1791 106.48C76.8634 106.647 76.5108 106.731 76.1597 106.731ZM68.2153 78.2162C63.9921 78.2162 60.5574 81.4056 60.5574 85.3271C60.5574 88.9646 70.6136 99.0618 76.1602 102.572C81.7067 99.0623 91.7629 88.9646 91.7629 85.3271C91.7629 81.4056 88.3282 78.2162 84.105 78.2162C81.6185 78.2162 79.2766 79.3502 77.8408 81.2483C77.0708 82.265 75.25 82.265 74.48 81.2483C73.0437 79.3502 70.7014 78.2162 68.2153 78.2162Z" fill="#040F3D"/>
</svg>
